# xmcd CD database file
#
# Track frame offsets:
#	150
#	23420
#	44252
#
# Disc length: 899 seconds
#
# Revision: 0
# Processed by: cddbd v1.5.1PL0 Copyright (c) Steve Scherf et al.
# Submitted via: CDex 1.50beta10
#
DISCID=16038103
DTITLE=THE YELLOW MONKEY - SO YOUNG
DYEAR=1999
DGENRE=JPop
TTITLE0=SO YOUNG
TTITLE1=NEW YORK CITY LOSER
TTITLE2=SO YOUNG(Instryment)
EXTD=YEAR: 1999
EXTT0=
EXTT1=
EXTT2=
PLAYORDER=
